<?xml version="1.0" encoding="utf-8"?>
<!-- Generator: Adobe Illustrator 25.0.0, SVG Export Plug-In . SVG Version: 6.00 Build 0)  -->
<svg version="1.1" id="레이어_1" xmlns="http://www.w3.org/2000/svg" xmlns:xlink="http://www.w3.org/1999/xlink" x="0px"
	 y="0px" viewBox="0 0 44 57" style="enable-background:new 0 0 44 57;" xml:space="preserve">
<style type="text/css">
	.st0{fill:none;stroke:#484848;stroke-width:1.5;stroke-linecap:round;stroke-linejoin:round;stroke-miterlimit:10;}
	.st1{fill:none;stroke:#484848;stroke-linecap:round;stroke-linejoin:round;stroke-miterlimit:10;}
</style>
<rect x="1.2" y="6.4" class="st0" width="41.6" height="13.7"/>
<line class="st0" x1="4.7" y1="20.1" x2="4.7" y2="45.1"/>
<line class="st0" x1="39.7" y1="20.1" x2="39.7" y2="45.1"/>
<rect x="1.6" y="45.1" class="st0" width="40.8" height="5.5"/>
<rect x="19.9" y="20.1" class="st1" width="5.6" height="3.9"/>
<rect x="5.5" y="11.1" class="st1" width="10.2" height="3.3"/>
<circle class="st1" cx="22.6" cy="13" r="3.8"/>
<circle class="st1" cx="32.4" cy="12.9" r="1.8"/>
<circle class="st1" cx="37.9" cy="12.9" r="1.8"/>
<path class="st1" d="M27.8,31.1V28h-12l1.7,3.1h15.4c0,0,1.3,0.1,1.9,2.1c0.6,2,1.6,7.9,1.6,7.9"/>
<path class="st1" d="M17.8,31"/>
<path class="st1" d="M15.8,45.1c-1.5-1.6-2.4-3.8-2.4-6.2c0-3.2,1.6-6,4.1-7.7"/>
<path class="st1" d="M27.8,31.1c2.5,1.7,4.2,4.5,4.2,7.8c0,2.4-0.9,4.6-2.4,6.2"/>
</svg>
