<?xml version="1.0" encoding="utf-8"?>
<!-- Generator: Adobe Illustrator 25.0.0, SVG Export Plug-In . SVG Version: 6.00 Build 0)  -->
<svg version="1.1" id="레이어_1" xmlns="http://www.w3.org/2000/svg" xmlns:xlink="http://www.w3.org/1999/xlink" x="0px"
	 y="0px" viewBox="0 0 53.8 57" style="enable-background:new 0 0 53.8 57;" xml:space="preserve">
<style type="text/css">
	.st0{fill:none;stroke:#484848;stroke-width:1.5;stroke-linecap:round;stroke-linejoin:round;stroke-miterlimit:10;}
	.st1{fill:none;stroke:#484848;stroke-linecap:round;stroke-linejoin:round;stroke-miterlimit:10;}
</style>
<path class="st0" d="M32.6,25.8c0,0-8.6,7.9-12,13.5s0.4,9.2,0.4,9.2s4.3,4.1,9.1,1.4s13.5-11.7,13.5-11.7s8.4-7.5,7.1-14.7
	c-1.3-7.2-9.6-7.9-9.6-7.9s-5.6-1.2-14.1,8.1c0,0-3.1,2.9-0.2,6.7l0.6,0.6"/>
<path class="st1" d="M26.3,24.3c0,0,3.8-3.2,11.1,5.7s3.2,11.1,3.2,11.1"/>
<path class="st1" d="M29.5,21c0,0,3.8-2.8,8.2,1.7s5.8,6,5.8,6s3.9,3.5,1.5,8.1"/>
<path class="st1" d="M34.6,17.2c0,0,2.5-1.5,6.2,1.5s7.3,8,7.3,8s2.2,2.4,0,5.7"/>
<path class="st0" d="M48.7,19.2c0,0,7.5,7,1.2,15s-13.6,14-13.6,14s-5.9,5.2-10,3.7S21,48.5,21,48.5"/>
<path class="st0" d="M7.6,18.3c0,0-4.8,10-5.9,16.4s3.8,8.5,3.8,8.5s5.5,2.3,9-2.1s8.3-15.9,8.3-15.9s5-10,1.2-16.3S12,5.2,12,5.2
	S6.3,6.2,1.8,18c0,0-1.9,3.8,2.3,6.3l0.8,0.4"/>
<path class="st1" d="M1.5,18.8c0,0,2.3-4.3,12.4,1.2s7,9.2,7,9.2"/>
<path class="st1" d="M3.3,14.5c0,0,2.5-4,8.2-1.4s7.6,3.5,7.6,3.5s4.9,1.8,4.4,7"/>
<path class="st1" d="M6.6,9.2c0,0,1.8-2.3,6.3-0.9s9.7,4.7,9.7,4.7s3,1.4,2.1,5.3"/>
<path class="st0" d="M20.5,5.9c0,0,9.5,3.7,6.6,13.5s-7.5,18-7.5,18s-3.6,7-8,7.1c-4.4,0.1-6.2-1.3-6.2-1.3"/>
</svg>
