<?xml version="1.0" encoding="utf-8"?>
<!-- Generator: Adobe Illustrator 25.0.0, SVG Export Plug-In . SVG Version: 6.00 Build 0)  -->
<svg version="1.1" id="레이어_1" xmlns="http://www.w3.org/2000/svg" xmlns:xlink="http://www.w3.org/1999/xlink" x="0px"
	 y="0px" viewBox="0 0 53 57" style="enable-background:new 0 0 53 57;" xml:space="preserve">
<style type="text/css">
	.st0{fill:none;stroke:#484848;stroke-linecap:round;stroke-linejoin:round;stroke-miterlimit:10;}
	.st1{fill:none;stroke:#484848;stroke-width:1.5;stroke-linecap:round;stroke-linejoin:round;stroke-miterlimit:10;}
</style>
<path class="st0" d="M43.9,53.6V32.4c0,0,0.1-3.2-4.3-3.2s-29.4,0-29.4,0s-3.2-0.2-3.2,4s0,21.5,0,21.5"/>
<line class="st0" x1="11" y1="49" x2="11" y2="54.6"/>
<line class="st0" x1="15.2" y1="49" x2="15.2" y2="54.6"/>
<line class="st0" x1="19.2" y1="49" x2="19.2" y2="54.6"/>
<line class="st0" x1="23.2" y1="49" x2="23.2" y2="54.6"/>
<line class="st0" x1="27.4" y1="49" x2="27.4" y2="54.6"/>
<line class="st0" x1="31.4" y1="49" x2="31.4" y2="54.6"/>
<line class="st0" x1="35.5" y1="49" x2="35.5" y2="54.6"/>
<path class="st0" d="M41.2,29.3c0,0-1.6-0.2-1.6,3.8s0,21.5,0,21.5"/>
<path class="st1" d="M22.1,6.7c0,0-0.1-4,4.2-4s4.6,4,4.6,4s-0.1,2.8-2.8,4.1c0,0-1.6,0.7-1.6,2.2L2.9,24.4c0,0-2,0.4-2,3.7
	s2.5,3.3,2.5,3.3h3.8"/>
<path class="st1" d="M26.5,13l23.4,11.3c0,0,2.2,1.2,2.2,3.6c-0.1,2.4-1.2,3.5-2.9,3.5s-5.6,0-5.6,0"/>
</svg>
