<?xml version="1.0" encoding="utf-8"?>
<!-- Generator: Adobe Illustrator 25.0.0, SVG Export Plug-In . SVG Version: 6.00 Build 0)  -->
<svg version="1.1" id="레이어_1" xmlns="http://www.w3.org/2000/svg" xmlns:xlink="http://www.w3.org/1999/xlink" x="0px"
	 y="0px" viewBox="0 0 38 57" style="enable-background:new 0 0 38 57;" xml:space="preserve">
<style type="text/css">
	.st0{fill:none;stroke:#484848;stroke-width:1.5;stroke-linecap:round;stroke-linejoin:round;stroke-miterlimit:10;}
	.st1{fill:none;stroke:#484848;stroke-linecap:round;stroke-linejoin:round;stroke-miterlimit:10;}
</style>
<path class="st0" d="M6.2,27.4c0,0,4.3,7.9,11.3,4.6S31,20.4,32.9,16.3s0.8-6.9-4.3-10"/>
<path class="st0" d="M9.7,31.3c0,0,2.2,2.1,0,5.5c-1.3,2.1-8.1,5.2-8.5,9.7c-0.5,4.3,2.4,4.2,2.4,4.2s4.5,1.1,9-10.3
	c0,0,1.2-3.7,4.9-4.3s9.8-3.2,14.5-9.1s4.9-9.6,4.9-9.6s1.2-5.9-3.9-7.3"/>
<line class="st1" x1="6.6" y1="22.3" x2="9.4" y2="25.1"/>
<line class="st1" x1="8.8" y1="17.3" x2="11.6" y2="20.1"/>
<line class="st1" x1="12.2" y1="13.6" x2="15" y2="16.4"/>
<line class="st1" x1="16.6" y1="10.2" x2="19.4" y2="13"/>
<line class="st1" x1="21.1" y1="6.8" x2="23.9" y2="9.6"/>
<line class="st1" x1="10.2" y1="26.7" x2="12.1" y2="28.6"/>
<line class="st1" x1="12.9" y1="23.5" x2="14.8" y2="25.4"/>
<line class="st1" x1="17.1" y1="19.6" x2="19" y2="21.4"/>
<line class="st1" x1="20.6" y1="16.2" x2="22.5" y2="18"/>
<line class="st1" x1="23.6" y1="12.1" x2="25.5" y2="14"/>
<line class="st1" x1="13.8" y1="27.7" x2="18" y2="31.8"/>
<line class="st1" x1="18.7" y1="24.8" x2="22.6" y2="28.7"/>
<line class="st1" x1="22.5" y1="21.3" x2="26.5" y2="25.2"/>
<line class="st1" x1="25.8" y1="17.3" x2="29.8" y2="21.3"/>
<line class="st1" x1="28.5" y1="12.5" x2="32.7" y2="16.8"/>
</svg>
