<?xml version="1.0" encoding="utf-8"?>
<!-- Generator: Adobe Illustrator 25.0.0, SVG Export Plug-In . SVG Version: 6.00 Build 0)  -->
<svg version="1.1" id="레이어_1" xmlns="http://www.w3.org/2000/svg" xmlns:xlink="http://www.w3.org/1999/xlink" x="0px"
	 y="0px" viewBox="0 0 56.7 57" style="enable-background:new 0 0 56.7 57;" xml:space="preserve">
<style type="text/css">
	.st0{fill:none;stroke:#484848;stroke-width:1.5;stroke-linecap:round;stroke-linejoin:round;stroke-miterlimit:10;}
	.st1{fill:none;stroke:#484848;stroke-linecap:round;stroke-linejoin:round;stroke-miterlimit:10;}
</style>
<g>
	<path class="st0" d="M20.8,37.7c0,0-5.3-0.3-7.2-3.1c-0.9-1.3-1.3-3.1-1.4-5c-0.1-2.1-0.2-5.3-0.1-7.3c0.1-1.9,0.5-3.5,1.4-4.8"/>
	<path class="st0" d="M42.7,19.4c0.6,1.1,0.4,1.3,0.4,2.8c0.1,2.1,0.1,5.3,0,7.4c-0.2,4.7-2.9,7.3-7.9,8c-4.5,0.6-9.8,0.6-14.4,0.1"
		/>
	<path class="st0" d="M32.3,13.7c2,0,0.6,0.1,1.4,0.2"/>
	<path class="st1" d="M31.9,13.7"/>
	<path class="st0" d="M19.1,14.2c0.3-0.1,0.6-0.1,0.9-0.1c2.5-0.4,5.1-0.6,8-0.5"/>
</g>
<g>
	<path class="st1" d="M32.7,31.7c-3.1,0.3-7,0.3-10.1,0c-3.4-0.3-5.2-1.7-5.3-4c-0.1-1-0.1-2.6-0.1-3.7c0.1-2.3,1.8-3.7,5.3-4.1
		c3.2-0.3,7.2-0.4,10.3,0c3.5,0.4,5.2,1.7,5.3,4.1c0.1,1.1,0,2.7,0,3.7C37.9,30.1,36.1,31.4,32.7,31.7z"/>
</g>
<circle class="st0" cx="30" cy="13.4" r="1.8"/>
<path class="st0" d="M41.9,12.7c0.4-0.5,0.6-1.1,0.6-1.8c0-1.6-1.3-2.9-2.9-2.9c-1.6,0-2.9,1.3-2.9,2.9c0,0.5,0.1,1,0.4,1.4
	c-0.3-0.1-0.6-0.1-0.9-0.1c-1.6,0-2.9,1.3-2.9,2.9s1.3,2.9,2.9,2.9c0.5,0,0.9-0.1,1.3-0.3c0.5,1.3,1.8,2.2,3.4,2.2
	c2,0,3.6-1.6,3.6-3.6C44.7,14.5,43.5,13.1,41.9,12.7z"/>
<path class="st0" d="M16.8,11.5c-0.7,0-1.3,0.3-1.7,0.9c-0.5-0.4-1.1-0.7-1.8-0.7c-1.6,0-2.9,1.3-2.9,2.9s1.3,2.9,2.9,2.9
	c1.2,0,2.3-0.8,2.7-1.9c0.3,0.1,0.6,0.2,0.9,0.2c1.2,0,2.1-1,2.1-2.1S18,11.5,16.8,11.5z"/>
<path class="st0" d="M44.1,30.9c8,1.2,11.9,3.2,11.9,5.7c0,3.9-12.4,7-27.6,7s-27.6-3.1-27.6-7c0-2.4,3-4.2,10.2-5.4"/>
<path class="st0" d="M13,32.1"/>
<path class="st0" d="M56,36.6C56,40.5,51.1,49,28.4,49S0.8,40.5,0.8,36.6"/>
<path class="st0" d="M53.7,37.7"/>
<path class="st0" d="M42.8,31.9"/>
</svg>
