<?xml version="1.0" encoding="utf-8"?>
<!-- Generator: Adobe Illustrator 25.0.0, SVG Export Plug-In . SVG Version: 6.00 Build 0)  -->
<svg version="1.1" id="레이어_1" xmlns="http://www.w3.org/2000/svg" xmlns:xlink="http://www.w3.org/1999/xlink" x="0px"
	 y="0px" viewBox="0 0 48 57" style="enable-background:new 0 0 48 57;" xml:space="preserve">
<style type="text/css">
	.st0{fill:none;stroke:#484848;stroke-width:1.5;stroke-linecap:round;stroke-linejoin:round;stroke-miterlimit:10;}
	.st1{fill:none;stroke:#484848;stroke-linecap:round;stroke-linejoin:round;stroke-miterlimit:10;}
</style>
<path class="st0" d="M37.2,24.6H8.3c-1.6-4,0-6.2,0-6.2h24.8c0,0,4.7-0.7,7.1,3.9s6.2,17.3,6.2,17.3s-3,1.1-4-2
	C41.3,34.5,38,25.8,37.2,24.6z"/>
<line class="st0" x1="37.2" y1="24.6" x2="35.8" y2="21.9"/>
<line class="st1" x1="10.7" y1="21.5" x2="28.9" y2="21.5"/>
<path class="st0" d="M8.3,18.4c0,0-4-4-5.4-7.2s0.5-3,0.5-3L31.6,11c0,0,1.6,0.1,1.1,1.8c-0.5,1.6-2.1,5.6-2.1,5.6"/>
<path class="st0" d="M8.3,24.6c0,0-5.5,6.9-6.6,15.2s4.9,9,4.9,9h24.9c0,0,7.4-1.1,6-7.9c-1.3-6.9-6.6-16.2-6.6-16.2"/>
<line class="st1" x1="3" y1="34.5" x2="35.8" y2="34.5"/>
</svg>
