<?xml version="1.0" encoding="utf-8"?>
<!-- Generator: Adobe Illustrator 25.0.0, SVG Export Plug-In . SVG Version: 6.00 Build 0)  -->
<svg version="1.1" id="레이어_1" xmlns="http://www.w3.org/2000/svg" xmlns:xlink="http://www.w3.org/1999/xlink" x="0px"
	 y="0px" viewBox="0 0 32.2 57" style="enable-background:new 0 0 32.2 57;" xml:space="preserve">
<style type="text/css">
	.st0{fill:none;stroke:#484848;stroke-width:1.5;stroke-linecap:round;stroke-linejoin:round;stroke-miterlimit:10;}
	.st1{fill:none;stroke:#484848;stroke-linecap:round;stroke-linejoin:round;stroke-miterlimit:10;}
</style>
<polygon class="st0" points="28.1,51.9 5.9,51.9 3,29.1 30.7,29.1 "/>
<line class="st1" x1="3.4" y1="32.4" x2="30.3" y2="32.4"/>
<polyline class="st0" points="14,29.1 19.3,11.4 20.4,5.2 31.4,7.7 29.9,13.9 28,29.1 "/>
<line class="st1" x1="19.3" y1="11.4" x2="29.9" y2="13.9"/>
<path class="st0" d="M6.5,29.1L1,7.5c0,0-0.9-1.8,1-2.2s2,1.4,2,1.4l6.5,22.5"/>
<path class="st0" d="M6.6,15.9"/>
<path class="st0" d="M6.6,15.9l3.8-1c0,0,2.4-0.3,1.6-2.8c-0.7-2.5-1.6-6.4-1.6-6.4s-0.4-1-2.3-0.5S4,6.6,4,6.6"/>
<line class="st1" x1="7.8" y1="8.7" x2="11" y2="8"/>
<line class="st1" x1="8.8" y1="12" x2="12" y2="11.2"/>
<path class="st1" d="M17.7,29.1c1.3-5.1,3.3-8.7,5-8.4c1.5,0.3,2.3,3.7,2.1,8.4"/>
</svg>
