<?xml version="1.0" encoding="utf-8"?>
<!-- Generator: Adobe Illustrator 25.0.0, SVG Export Plug-In . SVG Version: 6.00 Build 0)  -->
<svg version="1.1" id="레이어_1" xmlns="http://www.w3.org/2000/svg" xmlns:xlink="http://www.w3.org/1999/xlink" x="0px"
	 y="0px" viewBox="0 0 41 57" style="enable-background:new 0 0 41 57;" xml:space="preserve">
<style type="text/css">
	.st0{fill:none;stroke:#484848;stroke-width:1.5;stroke-linecap:round;stroke-linejoin:round;stroke-miterlimit:10;}
	.st1{fill:none;stroke:#484848;stroke-linecap:round;stroke-linejoin:round;stroke-miterlimit:10;}
</style>
<path class="st0" d="M33.2,19.4H5.8c-2.6,0-4.7,2.1-4.7,4.7v4.8c0,2.6,2.1,4.7,4.7,4.7h27.6"/>
<path class="st0" d="M37.1,28.3c1.7-0.7,2.9-2.4,2.9-4.3c0-2.6-2.1-4.7-4.7-4.7H33"/>
<path class="st0" d="M33.1,33.7h3.9c1.5,0,2.7-1.2,2.7-2.7s-1.2-2.7-2.7-2.7"/>
<path class="st0" d="M33.2,33.6H5.8c-2.6,0-4.7,2.1-4.7,4.7v4.8c0,2.6,2.1,4.7,4.7,4.7h27.6"/>
<path class="st0" d="M37.1,42.6c1.7-0.7,2.9-2.4,2.9-4.3c0-2.6-2.1-4.7-4.7-4.7H33"/>
<path class="st0" d="M33.1,47.9h3.9c1.5,0,2.7-1.2,2.7-2.7c0-1.5-1.2-2.7-2.7-2.7"/>
<path class="st0" d="M1.1,23.4L6,10.7c0,0,0.6-1.7,3.7-1.7s23.9,0,23.9,0s1.8,0,2.6,1.8l3.7,12.3"/>
<line class="st1" x1="36.5" y1="28.3" x2="8" y2="28.3"/>
<line class="st1" x1="34.6" y1="24.3" x2="8" y2="24.3"/>
<path class="st1" d="M7.7,28.3c-1.1,0-2-0.9-2-2s0.9-2,2-2"/>
<line class="st1" x1="36.5" y1="42.6" x2="8" y2="42.6"/>
<line class="st1" x1="34.6" y1="38.5" x2="8" y2="38.5"/>
<path class="st1" d="M7.7,42.6c-1.1,0-2-0.9-2-2s0.9-2,2-2"/>
</svg>
